<?xml version="1.0" encoding="UTF-8"?>
<svg version="1.1" xmlns="http://www.w3.org/2000/svg" width="34" height="51">
<path d="M0 0 C11.22 0 22.44 0 34 0 C34 16.83 34 33.66 34 51 C22.78 51 11.56 51 0 51 C0 34.17 0 17.34 0 0 Z " fill="#F9F6EC" transform="translate(0,0)"/>
<path d="M0 0 C0.7425 0.2475 1.485 0.495 2.25 0.75 C0.80470831 5.05445568 -1.39445683 7.99546975 -4.25 11.5 C-8.21910949 16.6477375 -10.00066455 20.32712475 -10.75 26.75 C-2.35113925 23.97906438 4.26206072 20.23190891 9.25 12.75 C9.91 12.75 10.57 12.75 11.25 12.75 C8.07104413 19.97930066 1.39002769 25.63435156 -5.75 28.75 C-9.5625 29.125 -9.5625 29.125 -12.75 28.75 C-14.75 26.75 -14.75 26.75 -15.375 23 C-15.24774119 15.17358341 -9.62847326 7.09568814 -4.65625 1.31640625 C-2.75 -0.25 -2.75 -0.25 0 0 Z " fill="#101010" transform="translate(17.75,18.25)"/>
<path d="M0 0 C0.66 0 1.32 0 2 0 C-1.17895587 7.22930066 -7.85997231 12.88435156 -15 16 C-18.8125 16.375 -18.8125 16.375 -22 16 C-24 14 -24 14 -24.1953125 11.8359375 C-24.17210937 11.02382813 -24.14890625 10.21171875 -24.125 9.375 C-24.10695313 8.55773438 -24.08890625 7.74046875 -24.0703125 6.8984375 C-24.04710937 6.27195312 -24.02390625 5.64546875 -24 5 C-23.67 5 -23.34 5 -23 5 C-23 7.64 -23 10.28 -23 13 C-22.34 13 -21.68 13 -21 13 C-20.67 11.68 -20.34 10.36 -20 9 C-20 10.65 -20 12.3 -20 14 C-11.60113925 11.22906438 -4.98793928 7.48190891 0 0 Z " fill="#3F3F3F" transform="translate(27,31)"/>
<path d="M0 0 C1.65 0 3.3 0 5 0 C5.33 1.65 5.66 3.3 6 5 C3.625 5.625 3.625 5.625 1 6 C0.34 5.34 -0.32 4.68 -1 4 C-0.625 1.875 -0.625 1.875 0 0 Z " fill="#1F1F1F" transform="translate(22,8)"/>
<path d="M0 0 C0.66 0 1.32 0 2 0 C0.59155282 3.21524305 -1.10344786 5.32183868 -3.625 7.75 C-4.57246094 8.67039062 -4.57246094 8.67039062 -5.5390625 9.609375 C-6.02117188 10.06828125 -6.50328125 10.5271875 -7 11 C-7.66 10.34 -8.32 9.68 -9 9 C-8.51789062 8.60167969 -8.03578125 8.20335937 -7.5390625 7.79296875 C-6.90742188 7.26316406 -6.27578125 6.73335937 -5.625 6.1875 C-4.99851562 5.66542969 -4.37203125 5.14335938 -3.7265625 4.60546875 C-1.7778952 2.91774261 -1.7778952 2.91774261 0 0 Z " fill="#434343" transform="translate(27,31)"/>
<path d="M0 0 C0 0.66 0 1.32 0 2 C-4.15267176 5.11450382 -4.15267176 5.11450382 -7.3125 4.6875 C-7.869375 4.460625 -8.42625 4.23375 -9 4 C-2.25 0 -2.25 0 0 0 Z " fill="#303030" transform="translate(19,41)"/>
</svg>
