<svg version="1.1" id="Layer_1" xmlns="http://www.w3.org/2000/svg" xmlns:xlink="http://www.w3.org/1999/xlink" x="0px" y="0px"
	 width="100%" viewBox="0 0 133 202" enable-background="new 0 0 133 202" xml:space="preserve">
<path fill="#E6C045" opacity="1.000000" stroke="none" 
	d="
M134.000000,60.000000 
	C134.000000,108.000000 134.000000,155.500000 134.000000,203.000000 
	C89.666664,203.000000 45.333332,203.000000 1.000000,203.000000 
	C1.000000,135.666672 1.000000,68.333336 1.000000,1.000000 
	C45.333332,1.000000 89.666664,1.000000 134.000000,1.000000 
	C134.000000,20.500000 134.000000,40.000000 134.000000,60.000000 
M10.177129,198.345627 
	C10.177129,198.345627 10.615625,198.420822 10.615625,198.420822 
	C10.615625,198.420822 11.011447,198.220703 11.942428,198.119507 
	C48.814499,198.108307 85.686668,198.125763 122.558342,197.999512 
	C124.363403,197.993347 126.164154,196.729645 128.427124,195.350586 
	C128.618759,188.290894 128.958054,181.231033 128.950317,174.171570 
	C128.945129,169.440002 128.447617,164.708969 128.073395,159.313354 
	C128.103958,158.867691 128.134521,158.422028 128.426178,157.590469 
	C128.269409,157.045334 128.112625,156.500214 127.754242,155.185089 
	C127.819733,154.133331 127.885216,153.081558 128.654419,151.839935 
	C132.283218,149.148209 132.026215,146.862793 127.729858,144.062943 
	C127.698479,133.745605 127.667091,123.428261 127.892738,112.193008 
	C127.989555,107.450417 128.086365,102.707817 128.343765,97.736916 
	C128.442795,97.455154 128.390823,97.198654 127.899590,96.932037 
	C127.899590,96.932037 127.643631,97.069313 127.690231,96.163239 
	C127.782539,93.453598 127.874840,90.743950 128.423126,87.338661 
	C128.271133,82.214745 128.119141,77.090836 127.762428,71.053505 
	C127.721779,64.742249 127.681122,58.430992 127.901711,51.326744 
	C127.996925,50.222099 128.092133,49.117455 128.560425,47.280457 
	C128.358597,41.837887 128.156769,36.395313 127.732903,30.565718 
	C127.732903,30.565718 127.624634,30.132854 127.795357,29.501070 
	C127.736916,29.290897 127.678474,29.080723 127.663528,28.102221 
	C127.755989,27.085558 127.848450,26.068897 128.324005,24.624720 
	C128.266296,23.760942 128.208572,22.897167 128.050919,21.237488 
	C127.904442,20.454147 127.757965,19.670809 127.655525,18.299152 
	C127.646126,17.906267 127.636726,17.513380 127.885162,16.276167 
	C127.580414,13.859075 127.275673,11.441981 126.966667,8.920530 
	C126.966667,8.920530 127.054443,8.863917 126.396950,8.415192 
	C123.247307,8.518586 120.097664,8.621982 116.293587,8.799143 
	C115.863358,8.730090 115.433136,8.661038 114.591919,7.991139 
	C111.060097,8.190316 107.528275,8.389493 103.259041,8.772298 
	C102.507050,8.711076 101.755051,8.649853 100.578255,7.978178 
	C90.062416,7.944920 79.546585,7.911661 68.090485,7.954304 
	C52.993725,7.971464 37.896847,7.963837 22.800352,8.036221 
	C20.848118,8.045579 18.897871,8.468710 16.080889,8.786432 
	C14.056284,8.880589 12.031679,8.974748 9.268821,8.997618 
	C9.148009,10.345159 9.027199,11.692698 8.974410,13.509336 
	C8.974410,13.509336 8.857899,13.968796 8.496895,14.407964 
	C8.589686,15.282809 8.682478,16.157656 8.881626,17.960157 
	C8.842036,43.963181 8.802447,69.966202 8.421420,96.285408 
	C8.212315,96.530342 8.096911,96.813477 8.019567,98.053658 
	C8.037848,105.664322 8.056130,113.274979 8.033395,121.836021 
	C8.024717,126.310989 7.906763,130.789062 8.034340,135.260162 
	C8.203183,141.177399 8.564146,147.089157 8.651008,153.821091 
	C8.439559,155.410446 8.011374,157.005234 8.050908,158.588318 
	C8.370751,171.396515 8.778419,184.202515 9.129794,197.532181 
	C9.431870,197.634048 9.733948,197.735916 9.942769,197.970749 
	C9.942769,197.970749 9.959653,198.132278 10.177129,198.345627 
z"/>
<path fill="#202020" opacity="1.000000" stroke="none" 
	d="
M101.003059,8.588630 
	C101.755051,8.649853 102.507050,8.711076 104.079247,8.768566 
	C108.267273,8.707218 111.635086,8.649603 115.002907,8.591988 
	C115.433136,8.661038 115.863358,8.730090 117.070374,8.867764 
	C120.916260,8.912228 123.985352,8.888073 127.054443,8.863917 
	C127.054443,8.863917 126.966667,8.920530 126.982239,9.393803 
	C127.207642,12.284881 127.417488,14.702688 127.627327,17.120495 
	C127.636726,17.513380 127.646126,17.906267 127.459030,18.863953 
	C127.375092,20.666233 127.487640,21.903715 127.631813,23.464781 
	C127.755920,24.209656 127.848412,24.630945 127.940903,25.052235 
	C127.848450,26.068897 127.755989,27.085558 127.498795,28.615791 
	C127.430916,29.463860 127.527779,29.798355 127.624634,30.132854 
	C127.624634,30.132854 127.732903,30.565718 127.739891,31.221090 
	C127.709099,36.883892 127.671318,41.891319 127.456940,47.191101 
	C127.400391,49.028881 127.520432,50.574306 127.640472,52.119736 
	C127.681122,58.430992 127.721779,64.742249 127.762039,71.971024 
	C127.830154,77.937126 127.898651,82.985718 127.967140,88.034309 
	C127.874840,90.743950 127.782539,93.453598 127.478210,96.973495 
	C127.389374,102.892807 127.512543,108.001862 127.635712,113.110924 
	C127.667091,123.428261 127.698479,133.745605 127.726761,144.952057 
	C127.799347,147.904053 127.875031,149.966919 127.950699,152.029800 
	C127.885216,153.081558 127.819733,154.133331 127.738266,155.784470 
	C127.722282,156.383850 127.606354,156.857285 127.428238,157.217361 
	C127.371826,160.755539 127.493546,163.933640 127.637909,167.543152 
	C127.648163,170.279877 127.635780,172.585220 127.443787,175.238617 
	C127.384430,178.427856 127.504662,181.269058 127.648224,184.541229 
	C127.656937,187.274872 127.642319,189.577530 127.467041,192.074188 
	C127.419342,192.885025 127.532295,193.501831 127.672874,194.446365 
	C127.789299,195.199890 127.878105,195.625717 127.966904,196.051529 
	C126.164154,196.729645 124.363403,197.993347 122.558342,197.999512 
	C85.686668,198.125763 48.814499,198.108307 11.219758,198.079285 
	C10.317944,198.070145 10.138798,198.101212 9.959653,198.132278 
	C9.959653,198.132278 9.942769,197.970749 9.859428,197.749771 
	C9.589570,197.332932 9.383973,197.159729 9.159298,197.009186 
	C8.778419,184.202515 8.370751,171.396515 8.050908,158.588318 
	C8.011374,157.005234 8.439559,155.410446 8.813867,152.947678 
	C8.952301,141.726349 8.927876,131.378433 9.145449,120.690430 
	C9.232199,112.558517 9.076951,104.766670 8.934559,96.715126 
	C8.885897,96.293358 8.824377,96.131294 8.762858,95.969223 
	C8.802447,69.966202 8.842036,43.963181 8.926359,17.121143 
	C8.933360,15.511018 8.895630,14.739907 8.857899,13.968796 
	C8.857899,13.968796 8.974410,13.509336 9.163096,13.002866 
	C9.570213,11.353900 9.788645,10.211403 10.007074,9.068906 
	C12.031679,8.974748 14.056284,8.880589 16.976212,8.850829 
	C34.950893,8.849253 52.030251,8.783280 69.569519,8.759460 
	C80.353966,8.730618 90.678513,8.659624 101.003059,8.588630 
M56.292072,167.039093 
	C54.942478,167.679428 53.625458,168.403305 52.237236,168.944595 
	C47.932308,170.623169 43.717617,172.771164 39.251610,173.743500 
	C32.369446,175.241852 28.355757,171.748428 28.060612,164.728973 
	C27.977831,162.760101 28.342773,160.768158 28.551704,158.792023 
	C29.611368,148.769379 35.219238,140.691528 40.784092,132.975891 
	C52.543243,116.671906 65.080170,100.928749 77.305107,84.960922 
	C80.941452,80.211227 80.199684,77.120308 74.729370,74.359924 
	C68.304512,71.117867 60.093018,73.720642 53.919781,80.736977 
	C40.316776,96.197769 29.864380,113.647385 21.538784,132.378998 
	C17.344801,141.814987 14.267898,151.545120 14.928602,162.222672 
	C15.734613,175.248505 25.089701,183.118103 37.825775,180.490707 
	C43.298862,179.361633 48.613861,177.466217 54.687950,175.812912 
	C75.956856,164.894836 112.587769,129.064514 112.033615,118.514229 
	C109.660843,120.304367 107.594551,121.514038 105.961960,123.155159 
	C98.700714,130.454346 91.953720,138.315857 84.278336,145.138840 
	C75.599930,152.853424 66.128197,159.675568 56.292072,167.039093 
M83.948631,49.384346 
	C89.627357,58.225147 98.895248,59.133904 106.171562,53.192448 
	C111.784302,48.609383 111.158882,40.724911 104.495140,38.235706 
	C100.295517,36.666965 95.492477,36.137779 90.964638,36.157928 
	C84.101044,36.188469 80.723007,42.355675 83.948631,49.384346 
z"/>
<path fill="#EBC24D" opacity="1.000000" stroke="none" 
	d="
M100.790657,8.283403 
	C90.678513,8.659624 80.353966,8.730618 69.568398,8.547984 
	C69.107376,8.294355 69.030746,7.878403 69.030746,7.878403 
	C79.546585,7.911661 90.062416,7.944920 100.790657,8.283403 
z"/>
<path fill="#B2984C" opacity="1.000000" stroke="none" 
	d="
M68.560616,7.916353 
	C69.030746,7.878403 69.107376,8.294355 69.108490,8.505831 
	C52.030251,8.783280 34.950893,8.849253 17.409119,8.807699 
	C18.897871,8.468710 20.848118,8.045579 22.800352,8.036221 
	C37.896847,7.963837 52.993725,7.971464 68.560616,7.916353 
z"/>
<path fill="#292824" opacity="1.000000" stroke="none" 
	d="
M8.921703,96.974831 
	C9.076951,104.766670 9.232199,112.558517 8.936205,120.665573 
	C8.484964,120.980797 8.074413,120.885643 8.074413,120.885643 
	C8.056130,113.274979 8.037848,105.664322 8.256783,97.542465 
	C8.494000,97.031281 8.921703,96.974831 8.921703,96.974831 
z"/>
<path fill="#E1BE4F" opacity="1.000000" stroke="none" 
	d="
M127.627701,191.880173 
	C127.642319,189.577530 127.656937,187.274872 127.777451,184.093872 
	C127.796684,180.440521 127.710037,177.665543 127.623390,174.890549 
	C127.635780,172.585220 127.648163,170.279877 127.765961,167.111771 
	C127.971054,164.158569 128.070724,162.068130 128.170410,159.977707 
	C128.447617,164.708969 128.945129,169.440002 128.950317,174.171570 
	C128.958054,181.231033 128.618759,188.290894 128.197021,195.701050 
	C127.878105,195.625717 127.789299,195.199890 127.782532,194.077789 
	C127.785622,192.881073 127.706657,192.380615 127.627701,191.880173 
z"/>
<path fill="#C3A655" opacity="1.000000" stroke="none" 
	d="
M8.053904,121.360832 
	C8.074413,120.885643 8.484964,120.980797 8.694208,121.005653 
	C8.927876,131.378433 8.952301,141.726349 8.909632,152.538773 
	C8.564146,147.089157 8.203183,141.177399 8.034340,135.260162 
	C7.906763,130.789062 8.024717,126.310989 8.053904,121.360832 
z"/>
<path fill="#EBC24D" opacity="1.000000" stroke="none" 
	d="
M114.797409,8.291563 
	C111.635086,8.649603 108.267273,8.707218 104.447952,8.676752 
	C107.528275,8.389493 111.060097,8.190316 114.797409,8.291563 
z"/>
<path fill="#E1BE4F" opacity="1.000000" stroke="none" 
	d="
M128.302567,151.934875 
	C127.875031,149.966919 127.799347,147.904053 127.830307,145.409637 
	C132.026215,146.862793 132.283218,149.148209 128.302567,151.934875 
z"/>
<path fill="#E2BE4F" opacity="1.000000" stroke="none" 
	d="
M127.633530,46.898746 
	C127.671318,41.891319 127.709099,36.883892 127.850914,31.414602 
	C128.156769,36.395313 128.358597,41.837887 128.256012,47.357811 
	C127.845573,47.256363 127.739555,47.077557 127.633530,46.898746 
z"/>
<path fill="#E6BC4E" opacity="1.000000" stroke="none" 
	d="
M128.195129,87.686485 
	C127.898651,82.985718 127.830154,77.937126 127.864410,72.427727 
	C128.119141,77.090836 128.271133,82.214745 128.195129,87.686485 
z"/>
<path fill="#695E3D" opacity="1.000000" stroke="none" 
	d="
M127.764221,112.651962 
	C127.512543,108.001862 127.389374,102.892807 127.454910,97.426529 
	C127.643631,97.069313 127.899590,96.932037 128.005981,97.199005 
	C128.135986,97.632393 128.159592,97.798813 128.183182,97.965225 
	C128.086365,102.707817 127.989555,107.450417 127.764221,112.651962 
z"/>
<path fill="#695E3D" opacity="1.000000" stroke="none" 
	d="
M128.121902,159.645538 
	C128.070724,162.068130 127.971054,164.158569 127.743317,166.680359 
	C127.493546,163.933640 127.371826,160.755539 127.586716,157.487915 
	C128.003906,157.591049 128.084503,157.783707 128.165085,157.976364 
	C128.134521,158.422028 128.103958,158.867691 128.121902,159.645538 
z"/>
<path fill="#B2984C" opacity="1.000000" stroke="none" 
	d="
M126.725693,8.639555 
	C123.985352,8.888073 120.916260,8.912228 117.397598,8.830880 
	C120.097664,8.621982 123.247307,8.518586 126.725693,8.639555 
z"/>
<path fill="#695E3D" opacity="1.000000" stroke="none" 
	d="
M127.756241,16.698330 
	C127.417488,14.702688 127.207642,12.284881 126.984360,9.445982 
	C127.275673,11.441981 127.580414,13.859075 127.756241,16.698330 
z"/>
<path fill="#292824" opacity="1.000000" stroke="none" 
	d="
M9.637948,9.033262 
	C9.788645,10.211403 9.570213,11.353900 9.129086,12.768318 
	C9.027199,11.692698 9.148009,10.345159 9.637948,9.033262 
z"/>
<path fill="#695E3D" opacity="1.000000" stroke="none" 
	d="
M127.456947,47.191101 
	C127.739555,47.077557 127.845573,47.256363 128.069458,47.723988 
	C128.092133,49.117455 127.996925,50.222099 127.771088,51.723240 
	C127.520432,50.574306 127.400391,49.028881 127.456947,47.191101 
z"/>
<path fill="#695E3D" opacity="1.000000" stroke="none" 
	d="
M127.600197,23.141195 
	C127.487640,21.903715 127.375092,20.666233 127.437012,19.158112 
	C127.757965,19.670809 127.904442,20.454147 127.981827,21.921673 
	C127.808548,22.784302 127.704376,22.962749 127.600197,23.141195 
z"/>
<path fill="#E2BE4F" opacity="1.000000" stroke="none" 
	d="
M127.631813,23.464781 
	C127.704376,22.962749 127.808548,22.784302 128.031799,22.319622 
	C128.208572,22.897167 128.266296,23.760942 128.132446,24.838478 
	C127.848412,24.630945 127.755920,24.209656 127.631813,23.464781 
z"/>
<path fill="#BA9E46" opacity="1.000000" stroke="none" 
	d="
M8.677397,14.188379 
	C8.895630,14.739907 8.933360,15.511018 8.873180,16.657314 
	C8.682478,16.157656 8.589686,15.282809 8.677397,14.188379 
z"/>
<path fill="#E1BE4F" opacity="1.000000" stroke="none" 
	d="
M128.295624,157.783417 
	C128.084503,157.783707 128.003906,157.591049 127.764832,157.127838 
	C127.606354,156.857285 127.722282,156.383850 127.839066,156.169464 
	C128.112625,156.500214 128.269409,157.045334 128.295624,157.783417 
z"/>
<path fill="#BA9E46" opacity="1.000000" stroke="none" 
	d="
M8.934559,96.715126 
	C8.921703,96.974831 8.494000,97.031281 8.284605,97.083038 
	C8.096911,96.813477 8.212315,96.530342 8.592139,96.127319 
	C8.824377,96.131294 8.885897,96.293358 8.934559,96.715126 
z"/>
<path fill="#695E3D" opacity="1.000000" stroke="none" 
	d="
M127.709999,29.816961 
	C127.527779,29.798355 127.430916,29.463860 127.477043,28.999954 
	C127.678474,29.080723 127.736916,29.290897 127.709999,29.816961 
z"/>
<path fill="#E6BC4E" opacity="1.000000" stroke="none" 
	d="
M128.263474,97.851074 
	C128.159592,97.798813 128.135986,97.632393 128.150116,97.216690 
	C128.390823,97.198654 128.442795,97.455154 128.263474,97.851074 
z"/>
<path fill="#262523" opacity="1.000000" stroke="none" 
	d="
M9.144547,197.270691 
	C9.383973,197.159729 9.589570,197.332932 9.906056,197.683289 
	C9.733948,197.735916 9.431870,197.634048 9.144547,197.270691 
z"/>
<path fill="#C9A743" opacity="1.000000" stroke="none" 
	d="
M10.068391,198.238953 
	C10.138798,198.101212 10.317944,198.070145 10.754268,198.129883 
	C11.011447,198.220703 10.615625,198.420822 10.615625,198.420822 
	C10.615625,198.420822 10.177129,198.345627 10.068391,198.238953 
z"/>
<path fill="#010101" opacity="1.000000" stroke="none" 
	d="
M54.000687,175.918976 
	C48.613861,177.466217 43.298862,179.361633 37.825775,180.490707 
	C25.089701,183.118103 15.734613,175.248505 14.928602,162.222672 
	C14.267898,151.545120 17.344801,141.814987 21.538784,132.378998 
	C29.864380,113.647385 40.316776,96.197769 53.919781,80.736977 
	C60.093018,73.720642 68.304512,71.117867 74.729370,74.359924 
	C80.199684,77.120308 80.941452,80.211227 77.305107,84.960922 
	C65.080170,100.928749 52.543243,116.671906 40.784092,132.975891 
	C35.219238,140.691528 29.611368,148.769379 28.551704,158.792023 
	C28.342773,160.768158 27.977831,162.760101 28.060612,164.728973 
	C28.355757,171.748428 32.369446,175.241852 39.251610,173.743500 
	C43.717617,172.771164 47.932308,170.623169 52.237236,168.944595 
	C53.625458,168.403305 54.942478,167.679428 56.624928,167.351776 
	C55.972080,170.415970 54.986382,173.167465 54.000687,175.918976 
z"/>
<path fill="#030303" opacity="1.000000" stroke="none" 
	d="
M54.344315,175.865936 
	C54.986382,173.167465 55.972080,170.415970 56.979614,167.275131 
	C66.128197,159.675568 75.599930,152.853424 84.278336,145.138840 
	C91.953720,138.315857 98.700714,130.454346 105.961960,123.155159 
	C107.594551,121.514038 109.660843,120.304367 112.033615,118.514229 
	C112.587769,129.064514 75.956856,164.894836 54.344315,175.865936 
z"/>
<path fill="#010101" opacity="1.000000" stroke="none" 
	d="
M83.733826,49.084011 
	C80.723007,42.355675 84.101044,36.188469 90.964638,36.157928 
	C95.492477,36.137779 100.295517,36.666965 104.495140,38.235706 
	C111.158882,40.724911 111.784302,48.609383 106.171562,53.192448 
	C98.895248,59.133904 89.627357,58.225147 83.733826,49.084011 
z"/>
<path fill="#695E3D" opacity="1.000000" stroke="none" 
	d="
M127.443787,175.238617 
	C127.710037,177.665543 127.796684,180.440521 127.754112,183.662872 
	C127.504662,181.269058 127.384430,178.427856 127.443787,175.238617 
z"/>
<path fill="#695E3D" opacity="1.000000" stroke="none" 
	d="
M127.467041,192.074188 
	C127.706657,192.380615 127.785622,192.881073 127.754913,193.750092 
	C127.532295,193.501831 127.419342,192.885025 127.467041,192.074188 
z"/>
</svg>